<svg width="32" height="52" viewBox="0 0 32 52" fill="none" xmlns="http://www.w3.org/2000/svg">
<path d="M6.1 46V12.85H13.2V46H6.1ZM1.15 25.9V19.55H18.6V25.9H1.15Z" fill="#F5F5F5"/>
<path d="M25.1257 46.572C23.7737 46.572 22.7337 46.1907 22.0057 45.428C21.2777 44.6653 20.9137 43.5733 20.9137 42.152C20.9137 40.8693 21.2951 39.8293 22.0577 39.032C22.8551 38.2 23.8777 37.784 25.1257 37.784C26.4431 37.784 27.4657 38.1653 28.1937 38.928C28.9217 39.6907 29.2857 40.7653 29.2857 42.152C29.2857 43.4693 28.9044 44.544 28.1417 45.376C27.3791 46.1733 26.3737 46.572 25.1257 46.572Z" fill="#5468E7"/>
</svg>
